<svg viewBox="0 0 520 220" style="width:100%;height:auto" role="img" aria-label="Coeficiente de variación del costo por peldaño">
<line x1="56" y1="182" x2="500" y2="182" stroke="rgba(255,255,255,.25)"/>
<line x1="56" y1="22" x2="56" y2="182" stroke="rgba(255,255,255,.25)"/>
<line x1="56" y1="142.0" x2="500" y2="142.0" stroke="rgba(255,255,255,.08)"/>
<text x="50" y="146.0" fill="var(--muted)" font-family="Roboto Mono" font-size="11" text-anchor="end">25%</text>
<line x1="56" y1="102.0" x2="500" y2="102.0" stroke="rgba(255,255,255,.08)"/>
<text x="50" y="106.0" fill="var(--muted)" font-family="Roboto Mono" font-size="11" text-anchor="end">50%</text>
<line x1="56" y1="62.0" x2="500" y2="62.0" stroke="rgba(255,255,255,.08)"/>
<text x="50" y="66.0" fill="var(--muted)" font-family="Roboto Mono" font-size="11" text-anchor="end">75%</text>
<line x1="56" y1="22.0" x2="500" y2="22.0" stroke="rgba(255,255,255,.08)"/>
<text x="50" y="26.0" fill="var(--muted)" font-family="Roboto Mono" font-size="11" text-anchor="end">100%</text>
<text x="100.4" y="198" fill="var(--muted)" font-family="Roboto Mono" font-size="11" text-anchor="middle">B</text>
<text x="189.2" y="198" fill="var(--muted)" font-family="Roboto Mono" font-size="11" text-anchor="middle">L1</text>
<text x="278.0" y="198" fill="var(--muted)" font-family="Roboto Mono" font-size="11" text-anchor="middle">L2</text>
<text x="366.8" y="198" fill="var(--muted)" font-family="Roboto Mono" font-size="11" text-anchor="middle">L3</text>
<text x="455.6" y="198" fill="var(--muted)" font-family="Roboto Mono" font-size="11" text-anchor="middle">L4</text>
<text x="56" y="14" fill="var(--muted)" font-family="Roboto Mono" font-size="11">variación del costo entre corridas (σ / media)</text>
<rect x="65.0" y="115.0" width="20.6" height="67.0" rx="2" fill="var(--red)"/>
<rect x="88.6" y="173.7" width="20.6" height="8.3" rx="2" fill="var(--blue)"/>
<rect x="112.2" y="174.4" width="20.6" height="7.6" rx="2" fill="var(--limegreen)"/>
<rect x="153.8" y="69.8" width="20.6" height="112.2" rx="2" fill="var(--red)"/>
<rect x="177.4" y="168.9" width="20.6" height="13.1" rx="2" fill="var(--blue)"/>
<rect x="201.0" y="161.3" width="20.6" height="20.7" rx="2" fill="var(--limegreen)"/>
<rect x="242.6" y="131.0" width="20.6" height="51.0" rx="2" fill="var(--red)"/>
<rect x="266.2" y="146.9" width="20.6" height="35.1" rx="2" fill="var(--blue)"/>
<rect x="289.8" y="150.1" width="20.6" height="31.9" rx="2" fill="var(--limegreen)"/>
<rect x="331.4" y="49.7" width="20.6" height="132.3" rx="2" fill="var(--red)"/>
<rect x="355.0" y="22.0" width="20.6" height="160.0" rx="2" fill="var(--blue)"/>
<text x="365.3" y="36" fill="#ffffff" font-family="Roboto Mono" font-size="10" text-anchor="middle">204%↑</text>
<rect x="378.6" y="166.7" width="20.6" height="15.3" rx="2" fill="var(--limegreen)"/>
<rect x="420.2" y="126.3" width="20.6" height="55.7" rx="2" fill="var(--red)"/>
<rect x="443.8" y="114.9" width="20.6" height="67.1" rx="2" fill="var(--blue)"/>
<rect x="467.4" y="147.1" width="20.6" height="34.9" rx="2" fill="var(--limegreen)"/>
</svg>
